<svg width="24" height="24" viewBox="0 0 24 24" fill="none" xmlns="http://www.w3.org/2000/svg">
<path d="M8.24994 2.24994V1.49994C8.24994 1.30103 8.32896 1.11026 8.46961 0.96961C8.61026 0.828957 8.80103 0.74994 8.99994 0.74994C9.19885 0.74994 9.38962 0.828957 9.53027 0.96961C9.67092 1.11026 9.74994 1.30103 9.74994 1.49994V2.24994C9.74994 2.44885 9.67092 2.63962 9.53027 2.78027C9.38962 2.92092 9.19885 2.99994 8.99994 2.99994C8.80103 2.99994 8.61026 2.92092 8.46961 2.78027C8.32896 2.63962 8.24994 2.44885 8.24994 2.24994ZM1.49994 9.74994H2.24994C2.44885 9.74994 2.63962 9.67092 2.78027 9.53027C2.92092 9.38962 2.99994 9.19885 2.99994 8.99994C2.99994 8.80103 2.92092 8.61026 2.78027 8.46961C2.63962 8.32896 2.44885 8.24994 2.24994 8.24994H1.49994C1.30103 8.24994 1.11026 8.32896 0.96961 8.46961C0.828957 8.61026 0.74994 8.80103 0.74994 8.99994C0.74994 9.19885 0.828957 9.38962 0.96961 9.53027C1.11026 9.67092 1.30103 9.74994 1.49994 9.74994ZM11.6643 3.67119C11.7525 3.71533 11.8484 3.74166 11.9467 3.74868C12.0451 3.7557 12.1438 3.74327 12.2373 3.7121C12.3308 3.68093 12.4173 3.63163 12.4917 3.56702C12.5662 3.50241 12.6272 3.42376 12.6712 3.33556L13.4212 1.83556C13.5102 1.65766 13.5249 1.45169 13.462 1.26295C13.3992 1.07421 13.2639 0.918172 13.086 0.829158C12.9081 0.740145 12.7022 0.725449 12.5134 0.788303C12.3247 0.851157 12.1686 0.986412 12.0796 1.16431L11.3296 2.66431C11.2855 2.7524 11.2591 2.84832 11.252 2.9466C11.2449 3.04488 11.2573 3.1436 11.2883 3.2371C11.3194 3.33061 11.3686 3.41708 11.4331 3.49156C11.4976 3.56604 11.5762 3.62708 11.6643 3.67119ZM2.66431 11.3296L1.16431 12.0796C0.986412 12.1686 0.851157 12.3247 0.788303 12.5134C0.725449 12.7022 0.740145 12.9081 0.829158 13.086C0.918172 13.2639 1.07421 13.3992 1.26295 13.462C1.45169 13.5249 1.65766 13.5102 1.83556 13.4212L3.33556 12.6712C3.42365 12.6271 3.5022 12.5661 3.56671 12.4917C3.63123 12.4173 3.68045 12.3309 3.71158 12.2374C3.7427 12.1439 3.75511 12.0453 3.7481 11.947C3.74109 11.8488 3.7148 11.7529 3.67072 11.6648C3.62665 11.5767 3.56565 11.4982 3.49122 11.4336C3.41679 11.3691 3.33038 11.3199 3.23693 11.2888C3.14348 11.2576 3.04481 11.2452 2.94656 11.2522C2.84831 11.2593 2.7524 11.2856 2.66431 11.3296ZM20.5603 17.2499C20.6996 17.3892 20.8101 17.5546 20.8855 17.7366C20.9609 17.9186 20.9997 18.1137 20.9997 18.3107C20.9997 18.5077 20.9609 18.7028 20.8855 18.8848C20.8101 19.0668 20.6996 19.2322 20.5603 19.3715L19.3715 20.5603C19.2322 20.6996 19.0668 20.8101 18.8848 20.8855C18.7028 20.9609 18.5077 20.9997 18.3107 20.9997C18.1137 20.9997 17.9186 20.9609 17.7366 20.8855C17.5546 20.8101 17.3892 20.6996 17.2499 20.5603L12.4406 15.7499L10.7812 20.0709C10.7812 20.0803 10.7737 20.0906 10.769 20.1009C10.6542 20.3685 10.4632 20.5964 10.2199 20.7563C9.97648 20.9162 9.69144 21.0009 9.40025 20.9999H9.32619C9.0225 20.9871 8.73009 20.8813 8.48848 20.6968C8.24687 20.5124 8.06772 20.2582 7.97525 19.9687L3.07494 4.96119C2.99082 4.69872 2.98063 4.41816 3.04551 4.15028C3.11039 3.88241 3.24781 3.63759 3.4427 3.4427C3.63759 3.24781 3.88241 3.11039 4.15028 3.04551C4.41816 2.98063 4.69872 2.99082 4.96119 3.07494L19.9687 7.97525C20.2555 8.0712 20.5066 8.25162 20.6891 8.49282C20.8716 8.73403 20.9769 9.02476 20.9912 9.32688C21.0054 9.62899 20.9281 9.92836 20.7692 10.1857C20.6103 10.4431 20.3774 10.6464 20.1009 10.769L20.0709 10.7812L15.7499 12.4396L20.5603 17.2499ZM19.4999 18.3103L14.6896 13.4999C14.5165 13.3271 14.3882 13.1146 14.3161 12.8808C14.2439 12.6471 14.23 12.3992 14.2756 12.1589C14.3211 11.9185 14.4248 11.6929 14.5775 11.5018C14.7303 11.3107 14.9274 11.1599 15.1518 11.0624L15.1818 11.0493L19.4896 9.39556L4.49994 4.49994L9.39369 19.4868L11.0484 15.1743C11.0484 15.164 11.0559 15.1537 11.0606 15.1434C11.158 14.9192 11.3089 14.7222 11.4999 14.5696C11.6909 14.4169 11.9163 14.3133 12.1565 14.2678C12.2493 14.2506 12.3434 14.2418 12.4378 14.2415C12.8352 14.2419 13.2162 14.4001 13.4971 14.6812L18.3103 19.4999L19.4999 18.3103Z" fill="#7A7A7A"/>
</svg>
