<svg width="28" height="28" viewBox="0 0 28 28" fill="none" xmlns="http://www.w3.org/2000/svg">
<path d="M10.2175 19.1338H12.6501V21.5674C12.6501 22.0485 12.5073 22.5189 12.24 22.9189C11.9727 23.3189 11.5926 23.6303 11.1482 23.8145C10.7036 23.9986 10.2139 24.0471 9.74194 23.9531C9.26997 23.8592 8.83607 23.6275 8.49585 23.2871C8.15571 22.9468 7.92457 22.513 7.83081 22.041C7.73704 21.569 7.78519 21.0793 7.96948 20.6348C8.15377 20.1905 8.46594 19.8111 8.86597 19.5439C9.26609 19.2768 9.73641 19.1337 10.2175 19.1338ZM10.2185 11.5674H12.6501V16.4316H10.2185C9.89925 16.4316 9.58281 16.3682 9.28784 16.2461C8.99279 16.1239 8.7246 15.9446 8.49878 15.7188C8.27296 15.4929 8.09365 15.2247 7.97144 14.9297C7.8493 14.6347 7.78589 14.3183 7.78589 13.999C7.78594 13.6798 7.84927 13.3633 7.97144 13.0684C8.09363 12.7735 8.2731 12.506 8.49878 12.2803C8.7246 12.0545 8.99279 11.8751 9.28784 11.7529C9.58283 11.6308 9.89923 11.5674 10.2185 11.5674ZM17.7849 11.5664C18.264 11.5666 18.7327 11.7082 19.1316 11.9736C19.5305 12.2391 19.8419 12.6167 20.0271 13.0586C20.2122 13.5006 20.2622 13.9875 20.1716 14.458C20.081 14.9286 19.8535 15.3625 19.5173 15.7041C19.1812 16.0456 18.7519 16.2806 18.283 16.3789C17.8139 16.4772 17.3256 16.4339 16.8806 16.2559C16.4358 16.0778 16.0528 15.7725 15.781 15.3779C15.5432 15.0326 15.3995 14.6324 15.3621 14.2168L15.3523 14.0381V13.96C15.3624 13.3217 15.6229 12.7124 16.0779 12.2646C16.5329 11.8169 17.1466 11.5663 17.7849 11.5664ZM10.2185 4H12.6501V8.86523H10.2185C9.57338 8.86523 8.95398 8.60852 8.4978 8.15234C8.04179 7.69622 7.78593 7.07759 7.78589 6.43262C7.78589 5.78766 8.04185 5.16903 8.4978 4.71289C8.89687 4.31382 9.42058 4.06708 9.97729 4.01172L10.2185 4ZM17.7751 4L18.0115 4.0166C18.5604 4.08127 19.0733 4.33145 19.4636 4.72949C19.9096 5.18432 20.1599 5.79563 20.1599 6.43262C20.1599 7.06955 19.9096 7.68095 19.4636 8.13574C19.0178 8.59036 18.4118 8.85259 17.7751 8.86523H15.3523V4H17.7751Z" fill="#484646" stroke="#484646"/>
</svg>
