<svg width="28" height="28" viewBox="0 0 28 28" fill="none" xmlns="http://www.w3.org/2000/svg">
<path d="M14.5514 23.3949C12.9745 22.2611 10.5842 19.136 10.1312 16.7646C9.5941 17.6155 8.47246 18.9747 7.92104 18.9747C6.26455 17.9934 7.28673 14.5843 7.92104 12.3443C6.15736 10.7608 5.19375 9.6281 5.15839 7.9241C1.45644 4.12269 4.66774 2.10043 7.92104 4.60892H9.0261C18.3992 5.16145 16.1217 13.5268 18.9716 17.3171C21.5078 17.8939 23.0217 19.8079 24.4969 21.1848C22.1918 20.9638 21.4205 20.8047 20.6292 21.1848C21.1574 22.9971 22.9753 23.616 24.4969 24.5M10.1312 7.9241H10.1422Z" fill="#484646"/>
<path d="M14.5514 23.3949C12.9745 22.2611 10.5842 19.136 10.1312 16.7646C9.5941 17.6155 8.47246 18.9747 7.92104 18.9747C6.26455 17.9934 7.28673 14.5843 7.92104 12.3443C6.15736 10.7608 5.19375 9.6281 5.15839 7.9241C1.45644 4.12269 4.66774 2.10043 7.92104 4.60892H9.0261C18.3992 5.16145 16.1217 13.5268 18.9716 17.3171C21.5078 17.8939 23.0217 19.8079 24.4969 21.1848C22.1918 20.9638 21.4205 20.8047 20.6292 21.1848C21.1574 22.9971 22.9753 23.616 24.4969 24.5M10.1312 7.9241H10.1422" stroke="#484646" stroke-linecap="round" stroke-linejoin="round"/>
</svg>
